<svg id="9e511394-1ac6-4988-a5be-70dc2e366e30" data-name="Layer 1" xmlns="http://www.w3.org/2000/svg" viewBox="0 0 180 155.88"><defs><style>.\38 eb22225-b915-44eb-bef8-839b55b8bc26{fill:#fd6d3f;}.\37 a2a67e4-0d86-47ba-819d-ce4fd45d91d7{fill:#1465c9;}.\37 815f6d9-69c8-4dcf-9866-fc68ff2fbf1a{fill:#00f5fc;}.\32 aa26ab9-3081-4114-bf9c-4695551c8de4{fill:#3c6496;}.\39 537a030-f768-47c7-acd3-2bcbe9ac90ac{fill:#c92514;}</style></defs><title>logo4</title><g id="3d03c6f4-60e8-4d35-9286-4453ab3453b4" data-name="Layer 2"><polygon class="8eb22225-b915-44eb-bef8-839b55b8bc26" points="180 77.94 179.97 78 135 155.88 45 155.88 0 77.94 45 0 135 0 179.97 77.88 180 77.94"/><polygon class="7a2a67e4-0d86-47ba-819d-ce4fd45d91d7" points="45.9 155.38 90.29 78.5 179.1 78.5 134.71 155.38 45.9 155.38"/><path class="8eb22225-b915-44eb-bef8-839b55b8bc26" d="M190.24,99l-43.82,75.88H58.76L102.58,99h87.66M192,98H102L57,175.88h90L192,98Z" transform="translate(-12 -20)"/><polygon class="7815f6d9-69c8-4dcf-9866-fc68ff2fbf1a" points="90.29 77.38 45.9 0.5 134.71 0.5 179.1 77.38 90.29 77.38"/><path class="8eb22225-b915-44eb-bef8-839b55b8bc26" d="M146.42,21l43.82,75.88H102.58L58.76,21h87.66m.58-1H57l45,77.88h90L147,20Z" transform="translate(-12 -20)"/><polygon class="2aa26ab9-3081-4114-bf9c-4695551c8de4" points="0.58 77.94 45 1 89.42 77.94 45 154.88 0.58 77.94"/><path class="8eb22225-b915-44eb-bef8-839b55b8bc26" d="M57,22l43.85,75.94L57,173.88,13.15,97.94,57,22m0-2L12,97.94l45,77.94,45-77.94L57,20Z" transform="translate(-12 -20)"/></g><g id="9c26d85a-a852-4935-8345-358a48f1bb43" data-name="Layer 3"><path class="9537a030-f768-47c7-acd3-2bcbe9ac90ac" d="M102.5,77.11l-24-41.54h30.88a77.06,77.06,0,0,1,31,6q13.85,6,19,14.84t-2.15,14.76Q149.9,77.11,130,77.11Zm12-6.12h12.59q10.13,0,15-3.77T142.66,56q-3.52-6.09-12.13-10.3a42,42,0,0,0-18.74-4.21H97.42Z" transform="translate(-12 -20)"/><path class="9537a030-f768-47c7-acd3-2bcbe9ac90ac" d="M159.28,133.71,147,155h-6.78l-1.43-5.6q-11,6.24-26.57,6.24-17.36,0-22.19-6.46t.07-15q5.18-9,18.33-15.21t30.32-6.23q12.82,0,19,3.64t5.23,9.06l-14,1.16q.66-7.61-13.47-7.61a39.5,39.5,0,0,0-16.79,3.59,26.46,26.46,0,0,0-12.07,11.05q-9.08,15.74,11.08,15.74a38.91,38.91,0,0,0,14.5-2.65q6.66-2.65,9.17-7H123.88l3.48-6Z" transform="translate(-12 -20)"/><path class="9537a030-f768-47c7-acd3-2bcbe9ac90ac" d="M87.52,81.26,78.78,96.4l-9.3-3.64L52,123,54.16,139l-7,12.09L38.37,83.42,48.44,66ZM63.84,90.54,46.58,83.42l4,30Z" transform="translate(-12 -20)"/></g></svg>